<svg width="16" height="16" viewBox="0 0 16 16" fill="none" xmlns="http://www.w3.org/2000/svg">
<path d="M7.69965 2.33203C6.39358 2.33203 5.26907 3.25391 5.01293 4.53462C4.94072 4.89566 5.17486 5.24688 5.5359 5.31908C5.89694 5.39129 6.24816 5.15715 6.32037 4.79611C6.45186 4.13863 7.02918 3.66536 7.69965 3.66536H7.83331C8.66171 3.66536 9.33331 4.33694 9.33331 5.16537C9.33331 5.9938 8.66171 6.66536 7.83331 6.66536H1.99998C1.63179 6.66536 1.33331 6.96383 1.33331 7.33203C1.33331 7.70023 1.63179 7.9987 1.99998 7.9987H7.83331C9.39811 7.9987 10.6666 6.73016 10.6666 5.16537C10.6666 3.60056 9.39811 2.33203 7.83331 2.33203H7.69965ZM12.547 6.33203C11.631 6.33203 10.8214 6.92603 10.5342 7.7879C10.4178 8.13716 10.6065 8.5147 10.9558 8.63116C11.3051 8.74756 11.6826 8.55883 11.7991 8.2095C11.9073 7.88496 12.2124 7.66536 12.547 7.66536C12.9812 7.66536 13.3331 8.0173 13.3331 8.45143V8.4987C13.3331 8.9589 12.96 9.33203 12.4998 9.33203H1.99998C1.63179 9.33203 1.33331 9.6305 1.33331 9.9987C1.33331 10.3669 1.63179 10.6654 1.99998 10.6654H5.99582H5.99998H9.83311C10.2934 10.6654 10.6664 11.0385 10.6664 11.4987V11.546C10.6664 11.9801 10.3145 12.332 9.88038 12.332C9.54578 12.332 9.24065 12.1124 9.13245 11.7879C9.01598 11.4386 8.63845 11.2498 8.28918 11.3662C7.93985 11.4827 7.75111 11.8602 7.86751 12.2095C8.15478 13.0714 8.96438 13.6654 9.88038 13.6654C11.0509 13.6654 11.9998 12.7165 11.9998 11.546V11.4987C11.9998 11.2034 11.9407 10.9219 11.8337 10.6654H12.4998C13.6964 10.6654 14.6664 9.6953 14.6664 8.4987V8.45143C14.6664 7.2809 13.7176 6.33203 12.547 6.33203ZM2.66665 4.16536C3.12689 4.16536 3.49998 3.79227 3.49998 3.33203C3.49998 2.87179 3.12689 2.4987 2.66665 2.4987C2.20641 2.4987 1.83331 2.87179 1.83331 3.33203C1.83331 3.79227 2.20641 4.16536 2.66665 4.16536ZM6.83331 13.332C6.83331 13.7923 6.46022 14.1654 5.99998 14.1654C5.53974 14.1654 5.16665 13.7923 5.16665 13.332C5.16665 12.8718 5.53974 12.4987 5.99998 12.4987C6.46022 12.4987 6.83331 12.8718 6.83331 13.332ZM12.6666 4.83203C13.1269 4.83203 13.5 4.45894 13.5 3.9987C13.5 3.53846 13.1269 3.16536 12.6666 3.16536C12.2064 3.16536 11.8333 3.53846 11.8333 3.9987C11.8333 4.45894 12.2064 4.83203 12.6666 4.83203Z" fill="#C0ED5F"/>
</svg>
